<?xml version="1.0" standalone="no"?>
<!DOCTYPE svg PUBLIC "-//W3C//DTD SVG 20010904//EN"
 "http://www.w3.org/TR/2001/REC-SVG-20010904/DTD/svg10.dtd">
<svg version="1.0" xmlns="http://www.w3.org/2000/svg"
 width="950.000000pt" height="944.000000pt" viewBox="0 0 950.000000 944.000000"
 preserveAspectRatio="xMidYMid meet">

<g transform="translate(0.000000,944.000000) scale(0.100000,-0.100000)"
fill="#000000" stroke="none">
<path d="M4555 8895 c-1170 -343 -2206 -972 -3090 -1876 -316 -324 -561 -613
-859 -1018 l-99 -134 6 -241 c33 -1236 370 -2469 975 -3556 170 -306 418 -696
609 -959 68 -93 68 -93 153 -128 144 -58 516 -180 705 -232 404 -110 804 -182
1240 -223 187 -17 962 -18 1140 0 700 68 1322 209 1958 442 87 32 88 33 144
109 88 119 301 441 400 606 658 1096 1027 2219 1138 3465 9 96 19 303 22 460
l6 285 -108 145 c-643 862 -1398 1550 -2280 2077 -424 254 -874 468 -1365 651
-246 92 -492 172 -523 172 -12 -1 -89 -21 -172 -45z m406 -164 c1564 -530
2827 -1437 3797 -2729 l115 -153 -6 -247 c-40 -1532 -527 -2989 -1442 -4312
-63 -91 -122 -170 -132 -177 -10 -7 -133 -50 -273 -97 -578 -192 -1094 -300
-1710 -358 -183 -17 -899 -17 -1090 0 -635 57 -1240 194 -1832 415 l-138 51
-79 110 c-423 594 -767 1219 -1006 1831 -317 809 -492 1667 -522 2562 l-6 192
63 88 c424 589 987 1191 1505 1609 395 319 779 566 1230 794 397 200 730 333
1160 460 72 21 131 39 131 39 1 1 107 -35 235 -78z"/>
<path d="M4578 8615 c-1032 -301 -1955 -841 -2742 -1605 -375 -364 -658 -689
-960 -1103 l-86 -119 0 -138 c0 -238 30 -609 76 -925 153 -1071 542 -2076
1179 -3045 163 -249 281 -413 308 -426 12 -7 103 -41 202 -77 574 -207 1158
-332 1765 -377 205 -15 717 -13 930 5 592 48 1126 159 1700 354 274 92 240 69
362 243 634 908 1053 1873 1257 2893 90 451 141 938 141 1346 l0 177 -132 173
c-925 1221 -2113 2076 -3580 2577 -295 101 -250 96 -420 47z m377 -85 c1487
-502 2674 -1358 3616 -2610 l94 -125 -3 -165 c-22 -1380 -417 -2677 -1183
-3885 -177 -280 -299 -447 -339 -466 -64 -30 -402 -140 -596 -194 -442 -123
-884 -201 -1349 -236 -194 -14 -678 -14 -870 0 -642 49 -1254 184 -1839 407
-141 53 -111 21 -352 380 -552 823 -910 1638 -1118 2544 -103 450 -176 1056
-176 1458 l0 137 143 190 c396 529 831 990 1297 1377 609 505 1332 906 2076
1152 192 63 334 104 365 105 14 1 119 -31 234 -69z"/>
<path d="M4493 7940 c-28 -3 -54 -8 -57 -11 -3 -3 8 -113 24 -244 16 -132 30
-243 30 -247 0 -29 -38 21 -176 226 l-157 235 -51 -6 c-28 -3 -56 -8 -62 -12
-7 -4 5 -128 37 -389 26 -211 50 -386 52 -389 3 -2 29 -1 59 4 l54 8 -31 253
c-17 138 -28 252 -25 252 3 0 77 -107 164 -237 l159 -236 60 7 c33 3 62 8 65
10 3 4 -85 761 -91 776 -1 3 -25 3 -54 0z"/>
<path d="M4797 7559 c-6 -309 -4 -395 5 -401 7 -4 36 -8 64 -8 l51 0 7 391 c4
215 6 392 4 394 -2 1 -30 6 -64 10 l-61 7 -6 -393z"/>
<path d="M5226 7909 c-3 -8 -41 -174 -86 -369 -44 -195 -83 -362 -86 -371 -3
-13 9 -20 56 -32 33 -8 62 -12 64 -8 2 3 11 40 20 81 33 147 31 144 103 199
36 28 68 50 70 48 2 -2 23 -91 47 -197 25 -106 48 -196 53 -200 9 -9 145 -41
150 -36 2 2 -28 118 -67 258 -38 140 -70 259 -69 264 0 5 67 61 149 124 82 63
149 118 149 121 1 3 -35 13 -80 23 -70 15 -83 15 -97 3 -152 -129 -314 -258
-319 -254 -3 4 11 77 31 164 20 87 36 161 36 164 0 4 -17 9 -37 13 -21 3 -48
9 -60 12 -15 4 -24 1 -27 -7z"/>
<path d="M3670 7769 l-75 -29 -59 -205 c-32 -113 -62 -205 -67 -205 -4 0 -24
44 -45 98 -78 203 -80 207 -100 205 -11 -1 -38 -10 -61 -20 l-41 -18 141 -365
c77 -201 141 -366 142 -368 4 -5 115 41 115 48 0 5 -18 56 -41 114 l-41 105
27 81 c15 44 29 80 32 80 3 0 72 -63 153 -140 l148 -140 72 27 c40 16 72 31
71 36 0 4 -85 80 -188 169 -104 88 -194 167 -202 174 -11 10 -4 41 44 194 31
99 56 183 54 185 -2 2 -38 -10 -79 -26z"/>
<path d="M6135 7209 c-225 -361 -215 -335 -144 -377 l36 -22 134 216 c103 165
135 209 137 191 2 -13 -6 -130 -17 -258 -28 -318 -31 -290 30 -328 28 -17 53
-30 54 -29 9 9 415 663 415 667 -1 12 -93 62 -100 54 -4 -4 -65 -100 -135
-213 -70 -113 -129 -207 -131 -209 -14 -15 -12 37 11 284 14 153 25 281 25
285 0 8 -91 70 -102 70 -3 0 -99 -149 -213 -331z"/>
<path d="M2706 7255 l-185 -146 181 -232 c292 -373 299 -382 308 -382 5 0 95
67 199 148 l190 148 -37 49 c-20 27 -39 49 -42 49 -3 0 -68 -49 -145 -109 -77
-60 -143 -109 -147 -107 -9 3 -128 158 -128 167 0 4 56 51 125 105 69 54 125
100 125 104 0 3 -18 26 -39 51 -30 34 -42 42 -52 34 -129 -102 -239 -184 -245
-184 -5 1 -32 31 -61 69 l-52 69 139 107 c83 64 137 112 133 119 -15 26 -67
86 -74 86 -4 0 -90 -65 -193 -145z"/>
<path d="M6753 6768 l-281 -272 30 -36 c17 -19 94 -99 171 -177 l140 -143 41
37 c23 20 43 41 45 46 1 4 -51 64 -118 132 -67 68 -121 127 -121 132 0 5 34
42 76 83 l76 75 114 -120 114 -120 46 47 47 46 -112 116 c-62 63 -111 119
-110 124 2 5 32 34 65 66 l62 56 120 -127 121 -128 47 47 47 46 -164 169 c-90
92 -166 169 -169 170 -3 1 -132 -120 -287 -269z"/>
<path d="M2177 6738 l-167 -193 48 -42 47 -42 66 72 67 72 23 -21 c201 -177
470 -404 476 -402 4 2 24 22 46 45 l38 41 -250 218 -250 217 42 49 c23 27 51
60 62 74 l20 26 -44 39 c-24 21 -46 39 -50 39 -4 0 -82 -87 -174 -192z"/>
<path d="M4615 6747 c-90 -93 -464 -533 -593 -698 -84 -108 -161 -239 -183
-311 -27 -88 -19 -125 68 -323 82 -185 88 -235 34 -272 -49 -33 -109 -31 -143
5 -106 112 -130 376 -47 516 l22 37 -54 -6 c-126 -16 -204 -51 -287 -129 -98
-92 -161 -213 -178 -342 l-6 -50 -58 -12 c-164 -34 -281 -141 -315 -288 l-12
-51 74 5 c185 12 333 -89 333 -227 0 -39 -3 -43 -35 -57 -118 -49 -263 28
-355 190 l-28 49 -20 -39 c-71 -141 -86 -290 -42 -394 35 -80 60 -115 158
-214 77 -78 83 -88 57 -82 -54 13 -171 76 -235 128 l-63 50 6 -84 c31 -404
339 -880 670 -1036 136 -64 190 -62 378 16 347 144 700 124 971 -56 l39 -25
22 21 c37 34 167 99 254 126 235 73 461 54 757 -65 121 -48 177 -51 274 -13
251 100 529 440 635 779 30 97 57 249 57 323 l0 54 -55 -51 c-53 -47 -219
-141 -252 -141 -8 0 19 33 60 74 198 193 236 363 132 594 -15 34 -30 62 -34
62 -3 0 -17 -21 -31 -47 -35 -65 -122 -158 -174 -182 -48 -24 -130 -28 -171
-9 -80 36 -19 192 100 253 51 26 70 30 161 33 l104 4 -7 27 c-40 165 -150 267
-324 302 l-55 11 -13 74 c-38 227 -231 419 -435 432 l-74 4 32 -63 c30 -61 31
-67 31 -194 -1 -112 -4 -138 -24 -190 -28 -69 -87 -135 -122 -135 -39 1 -106
36 -114 60 -11 35 3 86 72 260 81 202 86 247 36 351 -60 129 -154 253 -477
629 -173 202 -383 420 -405 420 -8 0 -60 -46 -116 -103z m220 -411 c44 -66
125 -182 180 -256 136 -183 216 -320 250 -423 25 -78 27 -96 23 -194 -4 -102
-8 -120 -72 -307 -66 -192 -68 -203 -64 -275 6 -93 25 -134 107 -224 34 -37
61 -73 61 -80 0 -7 -9 -31 -21 -52 -14 -27 -23 -66 -26 -118 -6 -90 4 -123 74
-247 58 -103 62 -135 28 -235 -34 -102 -65 -156 -132 -226 -60 -63 -138 -109
-228 -134 -94 -26 -369 -32 -476 -10 -199 40 -326 146 -398 335 -45 116 -42
152 20 266 61 115 70 141 70 222 0 47 -7 78 -26 119 -14 30 -25 64 -25 75 0
11 27 48 60 82 77 80 102 137 103 230 0 63 -6 89 -58 226 -79 209 -95 275 -95
384 0 168 56 283 310 641 78 110 163 235 188 279 39 67 48 76 57 61 5 -10 46
-72 90 -139z"/>
<path d="M4649 6026 c-40 -61 -88 -143 -107 -184 -45 -95 -43 -150 12 -240 20
-34 41 -75 46 -91 8 -27 6 -30 -18 -33 -30 -3 -43 -35 -20 -49 7 -5 95 -9 194
-9 149 0 184 3 194 15 18 21 5 45 -25 45 -34 0 -32 16 10 110 43 95 46 152 10
228 -13 29 -32 55 -41 59 -19 7 -66 -40 -96 -95 -11 -21 -25 -32 -39 -32 -20
0 -21 4 -17 45 7 60 31 93 84 116 24 11 44 25 44 30 0 22 -25 57 -91 125 l-69
71 -71 -111z"/>
<path d="M4606 5338 c23 -67 42 -192 48 -333 4 -71 9 -151 12 -177 l6 -48 92
0 93 0 6 107 c4 58 7 149 7 202 0 89 7 160 25 254 l7 37 -155 0 -156 0 15 -42z"/>
<path d="M4620 4651 c-88 -28 -140 -60 -201 -120 -185 -185 -184 -465 2 -651
92 -92 207 -140 334 -140 303 0 534 288 460 573 -44 169 -164 291 -334 341
-72 21 -191 20 -261 -3z m90 -190 c0 -183 -3 -186 -99 -107 -146 121 -157 132
-143 148 36 44 164 107 220 108 22 0 22 -1 22 -149z m227 112 c31 -15 58 -34
60 -40 5 -13 -193 -223 -209 -223 -4 0 -8 68 -8 151 l0 152 51 -6 c27 -3 75
-19 106 -34z m167 -146 c29 -45 66 -140 66 -169 0 -4 -74 -8 -165 -8 -91 0
-165 3 -165 7 0 5 220 221 228 223 1 0 17 -24 36 -53z m-566 -91 c50 -42 92
-79 92 -82 0 -2 -65 -4 -145 -4 -113 0 -145 3 -145 13 0 26 30 112 50 146 19
30 23 32 38 19 9 -8 59 -49 110 -92z m252 -88 c41 -44 10 -118 -49 -118 -33 0
-71 37 -71 69 0 60 79 93 120 49z m-160 -90 c0 -6 -45 -57 -100 -113 l-100
-102 -25 37 c-28 40 -65 137 -65 170 0 19 6 20 145 20 106 0 145 -3 145 -12z
m535 -25 c-8 -45 -53 -149 -70 -163 -9 -8 -43 15 -129 86 -64 53 -116 101
-116 105 0 5 73 9 161 9 l161 0 -7 -37z m-217 -141 c50 -42 92 -79 92 -83 0
-28 -175 -109 -235 -109 l-25 0 0 145 c0 124 2 145 17 153 12 7 22 4 37 -10
12 -11 63 -54 114 -96z m-254 102 c14 -5 16 -28 16 -150 0 -138 -1 -144 -20
-144 -35 0 -126 36 -173 69 l-45 30 102 101 c55 55 102 100 103 100 1 0 8 -3
17 -6z"/>
<path d="M1855 6295 c-16 -30 -26 -57 -23 -60 3 -4 156 -93 339 -199 l334
-193 32 51 c18 28 33 53 33 56 0 4 -277 165 -630 367 l-56 32 -29 -54z"/>
<path d="M7363 6286 c-144 -33 -304 -150 -359 -263 -37 -74 -36 -169 1 -252
32 -71 116 -155 188 -190 l49 -24 131 68 c73 37 136 71 140 75 8 7 -107 250
-118 250 -15 0 -105 -52 -105 -60 0 -6 14 -38 31 -71 17 -34 29 -62 27 -64 -2
-1 -22 -12 -46 -24 l-43 -22 -44 26 c-82 48 -117 121 -101 211 16 82 193 206
315 221 137 16 243 -106 193 -221 -11 -24 -25 -47 -31 -50 -17 -11 -14 -18 28
-69 l39 -47 31 25 c44 38 83 124 83 185 0 108 -69 225 -162 273 -68 34 -159
43 -247 23z"/>
<path d="M2282 5677 c-28 -68 -56 -136 -62 -151 -12 -33 19 -43 -333 100 -155
63 -284 111 -287 107 -4 -5 -16 -31 -27 -59 l-20 -51 351 -141 c193 -78 357
-142 364 -144 8 -2 41 66 92 190 43 106 81 201 85 211 4 15 -5 22 -51 40 -31
11 -57 21 -59 21 -1 0 -26 -55 -53 -123z"/>
<path d="M7578 5471 c-201 -47 -369 -89 -373 -92 -6 -7 94 -459 104 -471 8 -9
114 16 118 28 2 5 -14 86 -36 179 -22 93 -39 171 -38 172 1 1 50 13 107 26
l105 24 7 -21 c3 -12 21 -83 38 -158 35 -152 29 -145 111 -125 l46 12 -33 140
c-18 77 -33 150 -34 162 0 19 10 24 83 40 74 17 83 18 89 4 4 -9 23 -85 43
-170 19 -85 36 -156 38 -157 1 -2 30 4 63 12 l61 16 -28 116 c-15 65 -39 170
-54 235 -16 69 -32 117 -38 116 -7 -1 -177 -40 -379 -88z"/>
<path d="M1647 5269 c-56 -13 -128 -53 -164 -91 -77 -80 -102 -232 -54 -330
45 -93 154 -164 293 -192 282 -57 474 46 494 265 16 171 -107 304 -319 344
-86 16 -190 18 -250 4z m224 -133 c112 -24 183 -73 211 -145 29 -77 -33 -179
-125 -206 -114 -34 -289 -1 -365 69 -73 65 -72 176 1 244 54 51 153 64 278 38z"/>
<path d="M7316 4757 c-3 -12 -6 -41 -6 -64 l0 -43 168 -2 167 -3 -3 -45 c-2
-25 -10 -55 -17 -67 -14 -21 -123 -87 -252 -152 l-63 -31 0 -75 c0 -41 3 -75
6 -75 24 0 258 132 295 167 l46 43 17 -44 c20 -52 69 -99 121 -116 21 -7 69
-10 110 -8 62 3 80 8 117 33 63 45 75 89 80 307 l4 177 -40 5 c-23 3 -199 7
-393 10 l-351 4 -6 -21z m655 -121 c2 -2 2 -55 -1 -116 -5 -102 -7 -113 -29
-131 -36 -29 -115 -26 -146 6 -24 23 -25 31 -25 135 l0 110 98 0 c54 0 101 -2
103 -4z"/>
<path d="M1607 4430 c-78 -14 -136 -47 -168 -98 -35 -55 -35 -73 -12 -276 l17
-148 40 5 c22 3 199 25 394 49 l352 42 -6 61 c-4 33 -8 61 -9 63 -1 2 -59 -4
-128 -13 -188 -23 -173 -27 -181 55 -9 93 -31 162 -61 198 -44 52 -144 78
-238 62z m113 -140 c11 -6 25 -20 32 -33 12 -21 39 -169 33 -175 -2 -2 -52
-10 -111 -18 -119 -15 -124 -14 -124 42 0 17 -3 52 -6 77 -6 43 -4 49 29 82
30 30 42 35 82 35 25 0 55 -5 65 -10z"/>
<path d="M7260 4054 c-7 -30 -9 -58 -7 -61 3 -3 178 -35 389 -72 l383 -68 13
60 c6 33 11 62 9 63 -4 4 -743 134 -761 134 -10 0 -19 -19 -26 -56z"/>
<path d="M4159 3015 c-31 -8 -102 -35 -158 -60 -134 -60 -186 -71 -264 -55
-34 6 -78 20 -98 30 -27 14 -39 16 -48 7 -22 -22 -10 -36 46 -57 126 -47 254
-32 434 51 151 69 206 65 418 -31 60 -27 129 -53 151 -56 23 -4 44 -13 47 -21
3 -7 2 -56 -2 -107 l-7 -93 -114 44 c-165 63 -272 86 -364 80 -64 -4 -90 -12
-165 -50 -184 -92 -334 -95 -513 -10 -46 22 -70 38 -66 46 3 7 -4 1 -15 -13
-27 -33 -26 -44 10 -115 39 -77 63 -102 124 -131 70 -33 166 -32 358 6 362 70
517 66 737 -21 l80 -32 62 27 c95 41 211 66 338 73 127 6 212 -3 453 -48 265
-49 358 -38 442 52 42 44 85 123 85 152 0 7 -7 20 -14 30 -13 16 -18 15 -82
-17 -86 -44 -177 -66 -273 -66 -93 0 -172 20 -280 73 -77 38 -95 42 -174 45
-107 5 -197 -14 -361 -74 -66 -24 -123 -44 -128 -44 -4 0 -8 46 -8 103 l0 104
50 11 c28 7 110 38 183 69 130 57 133 58 227 58 90 0 99 -2 186 -42 50 -23
118 -49 152 -57 86 -23 214 -20 282 5 30 11 61 21 68 21 16 2 15 13 -4 28 -12
11 -26 10 -77 -8 -132 -44 -186 -38 -365 39 -206 89 -297 88 -501 -5 -237
-109 -289 -110 -511 -5 -174 81 -227 91 -341 64z"/>
<path d="M6743 2700 c-50 -12 -118 -56 -162 -106 -103 -118 -87 -280 42 -408
74 -74 143 -108 235 -114 66 -4 78 -2 137 27 99 49 178 157 192 263 6 39 4 41
-82 128 l-88 89 -94 -86 -94 -86 38 -39 37 -38 48 47 48 47 30 -29 c36 -35 37
-51 5 -114 -61 -121 -192 -134 -310 -30 -119 104 -128 234 -22 313 29 21 93
28 133 13 18 -6 26 0 52 40 l31 48 -32 16 c-41 20 -103 29 -144 19z"/>
<path d="M2540 2454 c-112 -124 -203 -232 -204 -238 -1 -10 200 -189 295 -264
15 -11 21 -7 48 27 l32 40 -109 93 c-61 51 -110 98 -110 103 0 6 65 83 144
172 79 89 156 176 171 194 l27 32 -39 33 c-22 19 -43 34 -47 34 -3 0 -97 -102
-208 -226z"/>
<path d="M6215 2288 c-22 -11 -41 -21 -43 -23 -1 -1 38 -79 88 -174 89 -170
98 -191 81 -191 -4 0 -73 42 -152 93 -79 51 -167 107 -196 125 l-51 33 -52
-26 -51 -26 44 -82 c25 -45 90 -171 147 -279 56 -109 106 -198 111 -198 12 0
89 39 89 44 0 3 -40 82 -90 176 -49 94 -90 173 -90 176 0 13 37 -8 212 -120
l193 -123 50 25 c28 13 51 26 53 27 5 5 -289 565 -296 565 -4 -1 -25 -10 -47
-22z"/>
<path d="M3109 2039 c-140 -110 -260 -206 -267 -213 -11 -11 -4 -19 39 -43
l53 -30 59 48 c32 27 60 49 62 49 2 0 47 -26 102 -59 109 -65 108 -62 89 -172
l-8 -46 53 -31 53 -31 63 327 c35 180 61 332 59 337 -2 6 -26 22 -54 37 l-50
28 -253 -201z m228 19 c-3 -13 -15 -67 -27 -120 -12 -54 -24 -98 -27 -98 -2 0
-36 19 -75 41 l-71 41 34 27 c19 14 61 49 94 78 67 58 80 63 72 31z"/>
<path d="M3691 1748 c-40 -155 -73 -293 -74 -306 -2 -22 4 -27 45 -37 l47 -13
15 52 c8 28 29 107 46 176 48 194 50 200 62 200 7 0 9 -69 6 -229 l-4 -229 55
-12 c44 -10 55 -10 62 1 5 8 55 101 110 207 55 105 105 192 110 192 6 0 8 -8
5 -17 -12 -44 -106 -416 -106 -423 0 -13 101 -29 105 -16 2 6 36 137 75 291
39 154 73 287 76 296 3 12 -13 19 -73 34 -43 10 -82 19 -88 21 -5 2 -57 -84
-115 -192 l-105 -196 -3 221 -2 220 -43 11 c-23 6 -58 15 -77 21 -19 5 -40 9
-46 9 -6 0 -43 -126 -83 -282z"/>
<path d="M5577 2004 c-27 -7 -51 -14 -53 -17 -3 -2 20 -104 50 -226 31 -121
53 -229 50 -239 -15 -44 -30 -62 -66 -76 -50 -21 -83 -20 -119 1 -40 24 -50
49 -109 278 -28 110 -52 201 -54 202 -2 2 -26 -2 -55 -9 -34 -8 -51 -16 -51
-27 0 -33 104 -409 126 -456 42 -91 120 -127 230 -106 144 26 206 80 212 185
3 49 -7 103 -47 266 -28 113 -55 212 -59 221 -6 14 -13 14 -55 3z"/>
<path d="M4618 1871 c-58 -3 -108 -8 -110 -11 -3 -4 27 -612 31 -627 2 -5 49
-3 81 4 l33 6 -6 119 -6 118 42 0 c78 1 180 20 214 41 84 52 101 215 31 300
-43 51 -108 62 -310 50z m207 -126 c18 -17 25 -35 25 -62 -1 -66 -29 -87 -134
-98 -53 -5 -71 -4 -77 7 -5 7 -9 50 -9 96 l0 82 85 0 c78 0 88 -2 110 -25z"/>
</g>
</svg>
